<?xml version="1.0" encoding="utf-8"?>
<!-- Generator: Adobe Illustrator 16.0.0, SVG Export Plug-In . SVG Version: 6.00 Build 0)  -->
<!DOCTYPE svg PUBLIC "-//W3C//DTD SVG 1.1//EN" "http://www.w3.org/Graphics/SVG/1.1/DTD/svg11.dtd">
<svg version="1.1" id="Calque_1" xmlns="http://www.w3.org/2000/svg" xmlns:xlink="http://www.w3.org/1999/xlink" x="0px" y="0px"
	 width="479.443px" height="477.141px" viewBox="0 0 479.443 477.141" enable-background="new 0 0 479.443 477.141"
	 xml:space="preserve">
<title>84 all</title>
<path fill="#FFFFFF" d="M25.787,393.504c0,3.945,3.198,7.144,7.143,7.144h210.729c0.863-0.004,1.719-0.165,2.523-0.476
	c7.221,1.242,14.532,1.879,21.859,1.904c23.147,0.544,45.716-7.266,63.575-22.001c17.581-14.242,27.05-36.206,25.336-58.767
	c-1.661-20.198-13.17-38.28-30.765-48.337l0,0c-25.858-14.953-50.289-17.572-68.814-7.715
	c-15.439,8.738-25.299,24.804-26.097,42.527c-0.183,5.639-0.04,11.283,0.429,16.906c0.619,10.334,1.286,21.001-1.715,28.192
	c-4.19,10.048-16.62,17.905-22.572,20.668l-4.238,2.048v4.762c0.021,2.478,1.225,4.795,3.238,6.238H32.929
	C29.076,386.597,25.915,389.653,25.787,393.504z"/>
<path fill="#FFFFFF" d="M366.477,278.115c8.08-0.036,15.449-4.624,19.049-11.858l57.146-113.865
	c12.384-24.654,2.435-54.68-22.22-67.062c-0.619-0.312-1.245-0.609-1.877-0.895h-0.381c-24.356-10.765-52.873-0.49-64.767,23.335
	l-58.242,115.865c-5.3,10.583-1.017,23.458,9.565,28.758c0.27,0.135,0.542,0.264,0.816,0.388l52.099,23.43
	C360.435,277.461,363.439,278.111,366.477,278.115z"/>
</svg>
