<?xml version="1.0" encoding="utf-8"?>
<!-- Generator: Adobe Illustrator 16.0.0, SVG Export Plug-In . SVG Version: 6.00 Build 0)  -->
<!DOCTYPE svg PUBLIC "-//W3C//DTD SVG 1.1//EN" "http://www.w3.org/Graphics/SVG/1.1/DTD/svg11.dtd">
<svg version="1.1" id="Calque_1" xmlns="http://www.w3.org/2000/svg" xmlns:xlink="http://www.w3.org/1999/xlink" x="0px" y="0px"
	 width="479.443px" height="477.141px" viewBox="0 0 479.443 477.141" enable-background="new 0 0 479.443 477.141"
	 xml:space="preserve">
<title>84 all</title>
<g>
	<path fill="#FFFFFF" d="M399.26,33.412H119.74H80.335c-16.007,0-30.374,13.135-30.374,28.732c0,0,0,0,0,0.41
		c0,0.821,1.231,2.462,1.231,3.283l32.016,288.551c0.411,4.105,2.052,8.209,4.104,11.494c2.874,5.746,7.389,9.85,13.135,12.723
		l127.242,62.391c4.104,2.052,8.62,2.873,12.724,2.873c4.105,0,8.619-0.821,12.725-2.873l126.83-62.391
		c10.262-5.334,16.419-16.008,16.008-27.5l31.195-286.088c0-0.821,0.411-2.462,0.411-3.284c0,0,0,0,0-0.41
		C428.812,46.547,415.268,33.412,399.26,33.412z M356.161,344.948l-114.928,56.644l-116.979-57.463L93.881,74.458h25.859h265.976
		L356.161,344.948z"/>
	<path fill="#FFFFFF" d="M140.262,239.461l52.128,52.129c3.694,3.694,9.03,5.746,14.366,5.746c5.336,0,10.672-2.052,14.366-5.746
		c7.798-7.799,7.798-20.523,0-28.732l-38.172-38.172l38.583-39.404c3.694-3.694,5.746-9.03,5.746-14.366
		c0-5.336-2.052-10.672-5.746-14.366c-3.694-3.694-9.03-5.747-14.366-5.747s-10.672,2.053-14.366,5.747l-53.359,53.359l0,0l0,0
		c-3.694,3.694-6.157,9.031-6.157,14.367c0,0.821,0,1.231,0,1.642c0,0.821,0,1.231,0,1.642c0,4.104,2.873,7.799,5.746,10.671
		C139.03,239.051,139.851,239.461,140.262,239.461z"/>
	<path fill="#FFFFFF" d="M304.034,224.685l-38.173,38.173c-7.798,7.799-7.798,20.523,0,28.732c3.694,3.694,9.03,5.746,14.366,5.746
		s10.672-2.052,14.365-5.746l52.539-52.949c4.105-4.104,5.746-9.031,5.336-14.366v-2.053l-0.411-0.41c0,0,0-0.411,0-0.821
		c-0.819-4.104-2.462-7.388-4.925-10.262c-0.41-0.41-0.41-0.821-1.23-1.23l-51.719-51.718c-3.694-3.694-9.029-5.746-14.365-5.746
		c-5.337,0-10.672,2.052-14.365,5.746c-3.695,3.694-5.748,9.031-5.748,14.366s2.053,10.672,5.748,14.366L304.034,224.685z"/>
</g>
</svg>
