<?xml version="1.0" encoding="utf-8"?>
<!-- Generator: Adobe Illustrator 16.0.0, SVG Export Plug-In . SVG Version: 6.00 Build 0)  -->
<!DOCTYPE svg PUBLIC "-//W3C//DTD SVG 1.1//EN" "http://www.w3.org/Graphics/SVG/1.1/DTD/svg11.dtd">
<svg version="1.1" id="Calque_1" xmlns="http://www.w3.org/2000/svg" xmlns:xlink="http://www.w3.org/1999/xlink" x="0px" y="0px"
	 width="479.444px" height="477.141px" viewBox="0 0 479.444 477.141" enable-background="new 0 0 479.444 477.141"
	 xml:space="preserve">
<title>84 all</title>
<g>
	<path fill="#FFFFFF" d="M6.595,3.762v466.7h466.699V3.762H6.595z M435.197,432.364H44.693V149.01h390.504V432.364z
		 M435.197,110.913H44.693V41.86h390.504V110.913z"/>
	<circle fill="#FFFFFF" cx="77.076" cy="75.196" r="19.049"/>
	<circle fill="#FFFFFF" cx="124.698" cy="75.196" r="19.049"/>
	<circle fill="#FFFFFF" cx="172.321" cy="75.196" r="19.049"/>
	<path fill="#FFFFFF" d="M419.957,163.298H58.028v104.77h361.93V163.298z M381.86,229.969H96.125v-28.573H381.86V229.969z"/>
	<rect x="77.076" y="282.353" fill="#FFFFFF" width="133.343" height="38.099"/>
	<rect x="77.076" y="332.357" fill="#FFFFFF" width="85.72" height="38.098"/>
	<rect x="234.23" y="282.353" fill="#FFFFFF" width="185.728" height="38.099"/>
	<rect x="234.23" y="332.357" fill="#FFFFFF" width="185.728" height="38.098"/>
	<rect x="234.23" y="382.361" fill="#FFFFFF" width="185.728" height="38.098"/>
</g>
</svg>
