<?xml version="1.0" encoding="utf-8"?>
<!-- Generator: Adobe Illustrator 16.0.0, SVG Export Plug-In . SVG Version: 6.00 Build 0)  -->
<!DOCTYPE svg PUBLIC "-//W3C//DTD SVG 1.1//EN" "http://www.w3.org/Graphics/SVG/1.1/DTD/svg11.dtd">
<svg version="1.1" id="Calque_1" xmlns="http://www.w3.org/2000/svg" xmlns:xlink="http://www.w3.org/1999/xlink" x="0px" y="0px"
	 width="460px" height="320px" viewBox="0 0 460 320" enable-background="new 0 0 460 320" xml:space="preserve">
<g id="devices">
	<path fill-opacity="0" stroke="#FFFFFF" stroke-width="4" stroke-linecap="round" stroke-linejoin="round" d="M221.899,222.097
		h85.688v6.553h-85.688V222.097z M134.777,4.5h259.93c3.754,0,6.824,3.072,6.824,6.825v167.246c0,3.754-3.07,6.825-6.824,6.825
		H290.638v10.616c0,12.5-1.771,9.771,8.492,16.709l8.49,5.741h-85.758c2.831-1.915,5.66-3.827,8.49-5.741
		c10.264-6.938,8.492-4.209,8.492-16.709v-10.616H134.777c-3.753,0-6.824-3.071-6.824-6.825V11.325
		C127.952,7.572,131.024,4.5,134.777,4.5z M264.742,9.006c1.367,0,2.475,1.109,2.475,2.477c0,1.368-1.107,2.475-2.475,2.475
		c-1.369,0-2.477-1.106-2.477-2.475C262.266,10.115,263.373,9.006,264.742,9.006z"/>
	<path fill="#393939" d="M221.399,221.597h85.688v6.553h-85.688V221.597z M134.277,4h259.93c3.754,0,6.824,3.072,6.824,6.825
		v167.246c0,3.754-3.07,6.825-6.824,6.825H290.138v10.616c0,12.5-1.771,9.771,8.492,16.709l8.49,5.741h-85.758
		c2.831-1.915,5.66-3.827,8.49-5.741c10.264-6.938,8.492-4.209,8.492-16.709v-10.616H134.277c-3.753,0-6.824-3.071-6.824-6.825
		V10.825C127.452,7.072,130.524,4,134.277,4z M264.242,8.506c1.367,0,2.475,1.109,2.475,2.477c0,1.368-1.107,2.475-2.475,2.475
		c-1.369,0-2.477-1.106-2.477-2.475C261.766,9.615,262.873,8.506,264.242,8.506"/>
	<path fill="#FFFFFF" d="M140.177,16.498h248.13v151.903h-248.13V16.498z"/>
	<path fill="#DADADA" d="M182.175,35.007h165.381c1.43,0,2.598,1.171,2.598,2.598v44.94c0,1.428-1.168,2.597-2.598,2.597H182.175
		c-1.43,0-2.598-1.169-2.598-2.597v-44.94C179.577,36.177,180.745,35.007,182.175,35.007"/>
	<path fill="#6BB5A7" d="M182.175,89.863h47.721c1.43,0,2.599,1.169,2.599,2.598v26.398c0,1.43-1.169,2.598-2.599,2.598h-47.721
		c-1.43,0-2.598-1.168-2.598-2.598V92.461C179.577,91.032,180.745,89.863,182.175,89.863"/>
	<path fill="#DADADA" d="M241.07,89.863h47.722c1.43,0,2.598,1.169,2.598,2.598v26.398c0,1.43-1.168,2.598-2.598,2.598H241.07
		c-1.429,0-2.598-1.168-2.598-2.598V92.461C238.472,91.032,239.641,89.863,241.07,89.863"/>
	<path fill="#DADADA" d="M299.965,89.863h47.722c1.43,0,2.599,1.169,2.599,2.598v26.398c0,1.43-1.169,2.598-2.599,2.598h-47.722
		c-1.429,0-2.598-1.168-2.598-2.598V92.461C297.367,91.032,298.536,89.863,299.965,89.863"/>
	<path fill="#DADADA" d="M238.472,127.739h52.917v3.053h-52.917V127.739z"/>
	<path fill="#DADADA" d="M238.472,134.935h52.917v3.054h-52.917V134.935z"/>
	<path fill="#DADADA" d="M238.472,142.13h39.096v3.054h-39.096V142.13z"/>
	<path fill="#DADADA" d="M238.472,149.326h52.917v3.054h-52.917V149.326z"/>
	<path fill="#DADADA" d="M238.472,156.522h28.886v3.054h-28.886V156.522z"/>
	<path fill="#DADADA" d="M297.367,127.739h52.918v3.053h-52.918V127.739z"/>
	<path fill="#DADADA" d="M297.367,134.935h47.096v3.054h-47.096V134.935z"/>
	<path fill="#DADADA" d="M297.367,142.13h52.918v3.054h-52.918V142.13z"/>
	<path fill="#DADADA" d="M297.367,149.326h52.918v3.054h-52.918V149.326z"/>
	<path fill="#DADADA" d="M297.367,156.522h21.342v3.054h-21.342V156.522z"/>
	<path fill="#DADADA" d="M179.134,156.522h52.918v3.054h-52.918V156.522z"/>
	<path fill="#DADADA" d="M179.134,149.328h39.096v3.053h-39.096V149.328z"/>
	<path fill="#DADADA" d="M179.134,142.132h52.918v3.054h-52.918V142.132z"/>
	<path fill="#DADADA" d="M179.134,134.935h48.6v3.054h-48.6V134.935z"/>
	<path fill="#DADADA" d="M179.134,127.739h36.478v3.053h-36.478V127.739z"/>
	<path fill-opacity="0" stroke="#FFFFFF" stroke-width="4" stroke-linejoin="round" d="M9.509,279.474h240.538
		c1.562,0,2.842,1.28,2.842,2.842v6.508c0,1.562-1.281,2.842-2.842,2.842H9.509c-1.559,0-2.842-1.276-2.842-2.842v-6.508
		C6.667,280.751,7.946,279.474,9.509,279.474z M30.075,145.157h199.407c3.574,0,6.5,2.933,6.5,6.5v118.277
		c0,3.566-2.935,6.5-6.5,6.5H30.075c-3.567,0-6.503-2.926-6.503-6.5V151.657C23.573,148.081,26.5,145.157,30.075,145.157z
		 M129.779,149.448c1.303,0,2.357,1.056,2.357,2.359c0,1.302-1.055,2.356-2.357,2.356c-1.302,0-2.358-1.055-2.358-2.356
		C127.42,150.504,128.477,149.448,129.779,149.448z"/>
	<path fill="#393939" d="M9.009,278.974h240.538c1.562,0,2.842,1.28,2.842,2.842v6.508c0,1.562-1.281,2.842-2.842,2.842H9.009
		c-1.559,0-2.842-1.276-2.842-2.842v-6.508C6.167,280.251,7.446,278.974,9.009,278.974z M29.575,144.657h199.407
		c3.574,0,6.5,2.933,6.5,6.5v118.277c0,3.566-2.935,6.5-6.5,6.5H29.575c-3.567,0-6.503-2.926-6.503-6.5V151.157
		C23.073,147.581,26,144.657,29.575,144.657z M129.279,148.948c1.303,0,2.357,1.056,2.357,2.359c0,1.302-1.055,2.356-2.357,2.356
		c-1.302,0-2.358-1.055-2.358-2.356C126.92,150.004,127.977,148.948,129.279,148.948"/>
	<path fill="#FFFFFF" d="M33.389,157.32h191.777v108.312H33.389V157.32z"/>
	<path fill="#DADADA" d="M65.785,181.759h127.229c1.099,0,1.997,0.898,1.997,1.997v34.571c0,1.101-0.898,1.999-1.997,1.999H65.785
		c-1.101,0-1.998-0.898-1.998-1.999v-34.571C63.787,182.657,64.685,181.759,65.785,181.759"/>
	<path fill="#6BB5A7" d="M65.785,223.959h36.713c1.099,0,1.997,0.9,1.997,1.999v20.309c0,1.099-0.898,1.998-1.997,1.998H65.785
		c-1.101,0-1.998-0.899-1.998-1.998v-20.309C63.787,224.859,64.685,223.959,65.785,223.959"/>
	<path fill="#DADADA" d="M111.092,223.959h36.712c1.101,0,1.999,0.9,1.999,1.999v20.309c0,1.099-0.898,1.998-1.999,1.998h-36.712
		c-1.099,0-1.997-0.899-1.997-1.998v-20.309C109.095,224.859,109.993,223.959,111.092,223.959"/>
	<path fill="#DADADA" d="M156.4,223.959h36.713c1.1,0,1.998,0.9,1.998,1.999v20.309c0,1.099-0.898,1.998-1.998,1.998H156.4
		c-1.099,0-1.999-0.899-1.999-1.998v-20.309C154.401,224.859,155.301,223.959,156.4,223.959"/>
	<path fill="#DADADA" d="M109.095,253.096h40.71v2.348h-40.71V253.096z"/>
	<path fill="#DADADA" d="M109.095,258.633h40.71v2.35h-40.71V258.633z"/>
	<path fill="#DADADA" d="M154.403,253.096h40.708v2.348h-40.708V253.096z"/>
	<path fill="#DADADA" d="M154.403,258.633h36.231v2.35h-36.231V258.633z"/>
	<path fill="#DADADA" d="M63.447,258.633h37.388v2.35H63.447V258.633z"/>
	<path fill="#DADADA" d="M63.447,253.097h28.062v2.349H63.447V253.097z"/>
	<path fill-opacity="0" stroke="#FFFFFF" stroke-width="4" stroke-linecap="round" stroke-linejoin="round" d="M448.155,110.484
		h-96.358c-3.396,0-6.176,2.79-6.176,6.177v129.344c0,3.388,2.789,6.179,6.176,6.179h96.358c3.387,0,6.178-2.78,6.178-6.179V116.661
		C454.332,113.264,451.552,110.484,448.155,110.484z M399.976,114.188c-1.237,0-2.241,1.004-2.241,2.242
		c0,1.236,1.004,2.238,2.241,2.238c1.238,0,2.24-1.002,2.24-2.238C402.216,115.192,401.214,114.188,399.976,114.188z"/>
	<path fill="#393939" d="M447.655,109.984h-96.358c-3.396,0-6.176,2.79-6.176,6.177v129.344c0,3.388,2.789,6.179,6.176,6.179h96.358
		c3.387,0,6.178-2.78,6.178-6.179V116.161C453.832,112.764,451.052,109.984,447.655,109.984z M399.476,113.688
		c-1.237,0-2.241,1.004-2.241,2.242c0,1.236,1.004,2.238,2.241,2.238c1.238,0,2.24-1.002,2.24-2.238
		C401.716,114.692,400.714,113.688,399.476,113.688"/>
	<path fill="#FFFFFF" d="M356.504,121.98h85.943v117.704h-85.943V121.98z"/>
	<path fill="#DADADA" d="M364.467,135.828h70.313c1.165,0,2.119,0.953,2.119,2.118v36.663c0,1.163-0.954,2.117-2.119,2.117h-70.313
		c-1.165,0-2.119-0.954-2.119-2.117v-36.663C362.348,136.781,363.302,135.828,364.467,135.828"/>
	<path fill="#6BB5A7" d="M364.467,180.579h31.327c1.165,0,2.118,0.954,2.118,2.119v21.536c0,1.165-0.953,2.119-2.118,2.119h-31.327
		c-1.165,0-2.119-0.954-2.119-2.119v-21.536C362.348,181.533,363.302,180.579,364.467,180.579"/>
	<path fill="#DADADA" d="M403.453,180.579h31.327c1.165,0,2.119,0.954,2.119,2.119v21.536c0,1.165-0.954,2.119-2.119,2.119h-31.327
		c-1.165,0-2.118-0.954-2.118-2.119v-21.536C401.335,181.533,402.288,180.579,403.453,180.579"/>
	<path fill="#DADADA" d="M401.337,211.476h35.564v2.49h-35.564V211.476z"/>
	<path fill="#DADADA" d="M401.337,217.347h35.564v2.49h-35.564V217.347z"/>
	<path fill="#DADADA" d="M401.337,223.219h26.275v2.49h-26.275V223.219z"/>
	<path fill="#DADADA" d="M401.337,229.089h35.564v2.49h-35.564V229.089z"/>
	<path fill="#DADADA" d="M401.337,234.96h19.413v2.49h-19.413V234.96z"/>
	<path fill="#DADADA" d="M362.051,234.96h35.564v2.49h-35.564V234.96z"/>
	<path fill="#DADADA" d="M362.051,229.089h26.276v2.49h-26.276V229.089z"/>
	<path fill="#DADADA" d="M362.051,223.219h35.564v2.49h-35.564V223.219z"/>
	<path fill="#DADADA" d="M362.051,217.349h32.664v2.489h-32.664V217.349z"/>
	<path fill="#DADADA" d="M362.051,211.478h24.517v2.49h-24.517V211.478z"/>
	<path fill-opacity="0" stroke="#FFFFFF" stroke-width="4" stroke-linecap="round" stroke-linejoin="round" d="M383.707,218.88
		h-42.84c-3.755,0-6.825,3.121-6.825,6.827v83.967c0,3.706,3.121,6.826,6.825,6.826h42.84c3.706,0,6.827-3.071,6.827-6.826v-83.967
		C390.534,221.952,387.462,218.88,383.707,218.88z"/>
	<path fill="#393939" d="M383.207,218.38h-42.84c-3.755,0-6.825,3.121-6.825,6.827v83.967c0,3.706,3.121,6.826,6.825,6.826h42.84
		c3.706,0,6.827-3.071,6.827-6.826v-83.967C390.034,221.452,386.962,218.38,383.207,218.38"/>
	<path fill="#FFFFFF" d="M361.787,302.169c-2.181,0-3.95,1.768-3.95,3.949c0,2.183,1.77,3.95,3.95,3.95
		c2.182,0,3.949-1.768,3.949-3.95C365.737,303.936,363.969,302.169,361.787,302.169"/>
	<path fill="#FFFFFF" d="M370.535,226.568h-17.494c-0.638,0-1.157,0.52-1.157,1.156s0.52,1.156,1.157,1.156h17.494
		c0.637,0,1.154-0.52,1.154-1.156S371.172,226.568,370.535,226.568"/>
	<path fill="#FFFFFF" d="M338.835,233.273h45.906v60.917h-45.906V233.273z"/>
	<path fill="#DADADA" d="M379.418,238.459h-35.442c-0.52,0-0.945,0.427-0.945,0.946v16.363c0,0.521,0.426,0.945,0.945,0.945h35.442
		c0.52,0,0.943-0.425,0.943-0.945v-16.363C380.362,238.885,379.938,238.459,379.418,238.459"/>
	<path fill="#6BB5A7" d="M378.201,259.717H344.96c-1.062,0-1.93,0.87-1.93,1.931v17.064c0,1.06,0.871,1.93,1.93,1.93h33.241
		c1.06,0,1.93-0.868,1.93-1.93v-17.064C380.131,260.586,379.263,259.717,378.201,259.717"/>
	<path fill="#DADADA" d="M343.03,288.583h32.664v2.221H343.03V288.583z"/>
	<path fill="#DADADA" d="M343.03,283.351h24.518v2.22H343.03V283.351z"/>
	<path fill="#FFFFFF" d="M399.476,112.142c-2.182,0-3.949,1.767-3.949,3.948c0,2.183,1.768,3.95,3.949,3.95
		c2.181,0,3.95-1.768,3.95-3.95C403.426,113.909,401.656,112.142,399.476,112.142"/>
	<path fill="#FFFFFF" d="M129.279,147.375c-2.182,0-3.949,1.769-3.949,3.95s1.768,3.95,3.949,3.95c2.183,0,3.95-1.769,3.95-3.95
		S131.461,147.375,129.279,147.375"/>
	<path fill="#FFFFFF" d="M264.242,6.685c-2.183,0-3.95,1.768-3.95,3.95c0,2.182,1.768,3.949,3.95,3.949
		c2.18,0,3.948-1.768,3.948-3.949C268.191,8.453,266.422,6.685,264.242,6.685"/>
</g>
</svg>
